<?xml version="1.0" encoding="UTF-8" standalone="no"?><!DOCTYPE svg PUBLIC "-//W3C//DTD SVG 1.1//EN" "http://www.w3.org/Graphics/SVG/1.1/DTD/svg11.dtd"><svg width="100%" height="100%" viewBox="0 0 1800 340" version="1.1" xmlns="http://www.w3.org/2000/svg" xmlns:xlink="http://www.w3.org/1999/xlink" xml:space="preserve" xmlns:serif="http://www.serif.com/" style="fill-rule:evenodd;clip-rule:evenodd;stroke-linejoin:round;stroke-miterlimit:2;"><path d="M502.591,145.324l-35.254,0l-0,65.263c-0,5.443 1.353,9.414 4.058,11.914c2.705,2.499 6.653,3.916 11.843,4.249c5.19,0.305 11.651,0.278 19.353,-0.167l0,36.714c-27.662,3.138 -47.153,0.528 -58.499,-7.86c-11.347,-8.359 -17.006,-23.327 -17.006,-44.878l-0,-65.263l-27.138,0l-0,-38.908l27.138,0l-0,-31.686l40.251,-12.248l-0,43.934l35.254,0l0,38.936Z" style="fill:#624ec4;fill-rule:nonzero;"/><path d="M657.187,243.69c-16.013,15.997 -35.559,23.995 -58.638,23.995c-23.079,-0 -42.57,-7.998 -58.499,-23.995c-15.902,-15.995 -23.852,-35.602 -23.852,-58.847c-0,-23.245 7.95,-42.823 23.852,-58.848c15.902,-15.995 35.42,-23.994 58.499,-23.994c23.079,0 42.625,7.999 58.638,23.994c16.011,15.997 24.017,35.631 24.017,58.848c-0,23.217 -8.006,42.852 -24.017,58.847Zm-88.729,-27.771c8.005,8.165 18.027,12.248 30.091,12.248c12.065,-0 22.141,-4.083 30.257,-12.248c8.117,-8.164 12.175,-18.523 12.175,-31.076c0,-12.552 -4.058,-22.911 -12.175,-31.076c-8.116,-8.165 -18.192,-12.248 -30.257,-12.248c-12.064,0 -22.112,4.083 -30.091,12.248c-8.006,8.165 -12.009,18.524 -12.009,31.076c-0,12.553 4.003,22.912 12.009,31.076Z" style="fill:#624ec4;fill-rule:nonzero;"/><path d="M813.856,106.39l43.039,0l-56.87,157.158c-8.115,22.412 -18.855,38.686 -32.244,48.85c-13.39,10.164 -30.064,14.719 -49.996,13.663l0,-37.658c10.822,0.194 19.38,-2.083 25.73,-6.915c6.349,-4.804 11.373,-12.553 15.128,-23.216l-63.965,-151.882l43.978,0l40.664,105.448l34.536,-105.448Z" style="fill:#624ec4;fill-rule:nonzero;"/><path d="M989.684,106.39l43.043,0l-56.874,157.158c-8.116,22.412 -18.855,38.686 -32.245,48.85c-13.389,10.164 -30.063,14.719 -49.995,13.663l-0,-37.658c10.822,0.194 19.38,-2.083 25.729,-6.915c6.35,-4.804 11.374,-12.553 15.128,-23.216l-63.937,-151.882l43.978,0l40.665,105.448l34.508,-105.448Z" style="fill:#624ec4;fill-rule:nonzero;"/><path d="M1067.04,87.587c-6.657,0 -12.429,-2.471 -17.316,-7.387c-4.888,-4.915 -7.342,-10.719 -7.342,-17.412c-0,-6.693 2.434,-12.553 7.342,-17.58c4.887,-5.026 10.659,-7.526 17.316,-7.526c6.865,0 12.726,2.5 17.604,7.526c4.888,5.027 7.352,10.887 7.352,17.58c-0,6.693 -2.464,12.497 -7.352,17.412c-4.858,4.916 -10.739,7.387 -17.604,7.387Zm-19.969,175.711l-0,-156.91l40.255,0l0,156.91l-40.255,-0Z" style="fill:#624ec4;fill-rule:nonzero;"/><path d="M1191.71,102.002c21.012,-0 38.954,7.999 53.806,23.994c14.882,15.997 22.303,35.631 22.303,58.848c0,23.217 -7.421,42.824 -22.303,58.847c-14.882,15.997 -32.794,23.995 -53.806,23.995c-21.836,-0 -38.676,-7.637 -50.548,-22.912l0,18.525l-40.255,-0l-0,-219.673l40.255,0l0,81.287c11.872,-15.274 28.712,-22.911 50.548,-22.911Zm-38.348,114.696c8.117,8.276 18.419,12.386 30.897,12.386c12.478,-0 22.83,-4.138 31.026,-12.386c8.196,-8.276 12.309,-18.885 12.309,-31.854c-0,-12.969 -4.113,-23.578 -12.309,-31.854c-8.226,-8.248 -18.548,-12.386 -31.026,-12.386c-12.478,0 -22.78,4.138 -30.897,12.386c-8.117,8.276 -12.17,18.885 -12.17,31.854c0,12.997 4.053,23.605 12.17,31.854Z" style="fill:#624ec4;fill-rule:nonzero;"/><path d="M1363.23,43.654c21.012,0 38.676,7.11 53.031,21.329c14.356,14.219 21.529,31.687 21.529,52.404c-0,20.718 -7.173,38.186 -21.529,52.404c-14.355,14.22 -32.019,21.329 -53.031,21.329l-38.378,0l0,72.178l-43.037,-0l0,-219.672l81.415,0l0,0.028Zm0,107.003c9.14,0 16.73,-3.194 22.77,-9.581c6.021,-6.387 9.061,-14.274 9.061,-23.689c-0,-9.609 -3.01,-17.579 -9.061,-23.855c-6.04,-6.277 -13.61,-9.415 -22.77,-9.415l-38.378,0l0,66.54l38.378,0Z" style="fill:#624ec4;fill-rule:nonzero;"/><path d="M1578.07,106.389l40.245,0l-0,156.909l-40.245,-0l-0,-18.525c-12.071,15.275 -29.02,22.912 -50.856,22.912c-20.783,-0 -38.616,-7.998 -53.498,-23.995c-14.882,-15.995 -22.304,-35.602 -22.304,-58.847c0,-23.245 7.422,-42.823 22.304,-58.848c14.882,-15.995 32.715,-23.994 53.498,-23.994c21.836,0 38.785,7.637 50.856,22.911l-0,-18.523Zm-74.232,110.308c8.116,8.276 18.409,12.386 30.887,12.386c12.477,-0 22.829,-4.138 31.026,-12.386c8.206,-8.276 12.319,-18.885 12.319,-31.854c-0,-12.969 -4.113,-23.578 -12.319,-31.854c-8.226,-8.248 -18.549,-12.386 -31.026,-12.386c-12.478,0 -22.771,4.138 -30.887,12.386c-8.117,8.276 -12.18,18.885 -12.18,31.854c-0,12.997 4.063,23.606 12.18,31.854Z" style="fill:#624ec4;fill-rule:nonzero;"/><path d="M1751.08,106.39l43.037,0l-56.866,157.158c-8.117,22.412 -18.856,38.686 -32.248,48.85c-13.392,10.164 -30.062,14.719 -50.001,13.663l-0,-37.658c10.828,0.194 19.382,-2.083 25.73,-6.915c6.349,-4.804 11.376,-12.553 15.131,-23.216l-63.94,-151.882l43.981,0l40.663,105.448l34.513,-105.448Z" style="fill:#624ec4;fill-rule:nonzero;"/><path d="M172.08,72.481l-50.493,-0c-3.037,-0 -5.686,2.055 -6.487,4.999l-65.815,247.054c-1.132,4.277 2.071,8.498 6.488,8.498l50.493,0c3.036,0 5.687,-2.055 6.487,-4.999l65.815,-247.054c1.132,-4.277 -2.099,-8.498 -6.488,-8.498Z" style="fill:#624ec4;fill-rule:nonzero;"/><path d="M77.141,137.243l-50.493,0c-3.037,0 -5.687,2.056 -6.488,5l-14.052,52.792c-1.132,4.277 2.071,8.499 6.488,8.499l50.493,-0c3.037,-0 5.687,-2.055 6.487,-4.999l14.052,-52.793c1.132,-4.305 -2.07,-8.499 -6.487,-8.499Z" style="fill:#624ec4;fill-rule:nonzero;"/><path d="M267.213,6.968l-50.493,-0c-3.037,-0 -5.688,2.055 -6.489,4.999l-65.787,247.054c-1.132,4.277 2.071,8.498 6.488,8.498l50.493,-0c3.036,-0 5.687,-2.055 6.488,-4.998l65.759,-247.055c1.16,-4.305 -2.042,-8.498 -6.459,-8.498Z" style="fill:#fc9026;fill-rule:nonzero;"/><path d="M336.065,40.097l-50.493,0c-3.037,0 -5.687,2.055 -6.487,4.999l-14.052,52.794c-1.132,4.276 2.07,8.497 6.487,8.497l50.493,0c3.037,0 5.687,-2.055 6.488,-4.998l14.051,-52.794c1.133,-4.276 -2.07,-8.498 -6.487,-8.498Z" style="fill:#fc9026;fill-rule:nonzero;"/></svg>